<svg xmlns="http://www.w3.org/2000/svg" width="1721" height="1710" fill="none" viewBox="0 0 1721 1710"><g filter="url(#filter0_d_125_17)"><path stroke="#145DA0" stroke-linejoin="round" stroke-width="38" d="M539.276 506.996C528.783 506.996 520.276 515.503 520.276 525.996V1200.06C520.276 1210.55 528.783 1219.06 539.276 1219.06H1210.86C1221.36 1219.06 1229.86 1210.55 1229.86 1200.06V525.996C1229.86 515.503 1221.36 506.996 1210.86 506.996H539.276Z" shape-rendering="crispEdges"/></g><g filter="url(#filter1_d_125_17)"><rect width="493.813" height="495.547" x="628.163" y="615.252" stroke="#145DA0" stroke-linejoin="round" stroke-width="23" shape-rendering="crispEdges"/></g><path fill="#fff" stroke="#145DA0" stroke-width="16" d="M1162.5 605C1180.45 605 1195 590.449 1195 572.5C1195 554.551 1180.45 540 1162.5 540C1144.55 540 1130 554.551 1130 572.5C1130 590.449 1144.55 605 1162.5 605Z"/><path fill="#fff" stroke="#7E0707" stroke-width="34" d="M1137.58 1508.24C1174.75 1508.24 1204.77 1478.02 1204.77 1440.86C1204.77 1403.71 1174.75 1373.48 1137.58 1373.48C1100.41 1373.48 1070.39 1403.71 1070.39 1440.86C1070.39 1478.02 1100.41 1508.24 1137.58 1508.24Z"/><g filter="url(#filter2_d_125_17)"><line x1="1130.62" x2="1130.62" y1="1391.51" y2="1259.5" stroke="#7E0707" stroke-width="34"/></g><g filter="url(#filter3_d_125_17)"><line x1="966.989" x2="966.989" y1="1429.78" y2="1259.5" stroke="#7E0707" stroke-width="34"/></g><g filter="url(#filter4_d_125_17)"><line x2="112.794" y1="-17" y2="-17" stroke="#7E0707" stroke-width="34" transform="matrix(0.357221 -0.93402 0.933138 0.359518 943.834 1535.13)"/></g><path fill="#fff" stroke="#7E0707" stroke-width="34" d="M908.699 1692.63C959.728 1692.63 1000.99 1651.12 1000.99 1600.06C1000.99 1548.99 959.728 1507.49 908.699 1507.49C857.67 1507.49 816.409 1548.99 816.409 1600.06C816.409 1651.12 857.67 1692.63 908.699 1692.63Z"/><path fill="#fff" stroke="#7E0707" stroke-width="34" d="M636.15 1431.67C664.725 1431.67 687.783 1408.43 687.783 1379.91C687.783 1351.38 664.725 1328.14 636.15 1328.14C607.574 1328.14 584.516 1351.38 584.516 1379.91C584.516 1408.43 607.574 1431.67 636.15 1431.67Z"/><g filter="url(#filter5_d_125_17)"><line x1="635.694" x2="635.694" y1="1346.16" y2="1259.5" stroke="#7E0707" stroke-width="34"/></g><path fill="#fff" stroke="#7E0707" stroke-width="34" d="M822.869 1430.66C851.444 1430.66 874.502 1407.43 874.502 1378.9C874.502 1350.37 851.444 1327.14 822.869 1327.14C794.293 1327.14 771.235 1350.37 771.235 1378.9C771.235 1407.43 794.293 1430.66 822.869 1430.66Z"/><g filter="url(#filter6_d_125_17)"><line x1="825.409" x2="825.409" y1="1345.16" y2="1258.5" stroke="#7E0707" stroke-width="34"/></g><path fill="#fff" stroke="#7E0707" stroke-width="34" d="M597.501 352.567C634.669 352.567 664.694 322.341 664.694 285.188C664.694 248.036 634.669 217.81 597.501 217.81C560.332 217.81 530.307 248.036 530.307 285.188C530.307 322.341 560.332 352.567 597.501 352.567Z"/><g filter="url(#filter7_d_125_17)"><line x1="590.539" x2="590.539" y1="466.565" y2="334.559" stroke="#7E0707" stroke-width="34"/></g><path stroke="#7E0707" stroke-width="34" d="M786.254 303.806L734.053 179.372"/><g filter="url(#filter8_d_125_17)"><line x1="784.285" x2="784.285" y1="466.55" y2="296.272" stroke="#7E0707" stroke-width="34"/></g><path fill="#fff" stroke="#7E0707" stroke-width="34" d="M712.945 202.44C763.974 202.44 805.235 160.937 805.235 109.872C805.235 58.8079 763.974 17.3052 712.945 17.3052C661.916 17.3052 620.655 58.8079 620.655 109.872C620.655 160.937 661.916 202.44 712.945 202.44Z"/><path fill="#fff" stroke="#7E0707" stroke-width="34" d="M1152.64 353.574C1189.81 353.574 1219.83 323.349 1219.83 286.196C1219.83 249.043 1189.81 218.818 1152.64 218.818C1115.47 218.818 1085.44 249.043 1085.44 286.196C1085.44 323.349 1115.47 353.574 1152.64 353.574Z"/><g filter="url(#filter9_d_125_17)"><line x1="1145.68" x2="1145.68" y1="466.565" y2="334.559" stroke="#7E0707" stroke-width="34"/></g><path fill="#fff" stroke="#7E0707" stroke-width="34" d="M925.263 397.907C953.838 397.907 976.896 374.674 976.896 346.146C976.896 317.618 953.838 294.385 925.263 294.385C896.687 294.385 873.629 317.618 873.629 346.146C873.629 374.674 896.687 397.907 925.263 397.907Z"/><g filter="url(#filter10_d_125_17)"><line x1="926.799" x2="926.799" y1="467.556" y2="380.899" stroke="#7E0707" stroke-width="34"/></g><g filter="url(#filter11_d_125_17)"><line x2="86.338" y1="-17" y2="-17" stroke="#7E0707" stroke-width="34" transform="matrix(0.999931 -0.011715 0.0115399 0.999933 1269.1 743.63)"/></g><path fill="#fff" stroke="#7E0707" stroke-width="34" d="M1392.06 784.811C1420.64 784.811 1443.69 761.578 1443.69 733.05C1443.69 704.522 1420.64 681.289 1392.06 681.289C1363.48 681.289 1340.43 704.522 1340.43 733.05C1340.43 761.578 1363.48 784.811 1392.06 784.811Z"/><g filter="url(#filter12_d_125_17)"><line x1="1276.11" x2="1407.64" y1="1097.41" y2="1097.41" stroke="#7E0707" stroke-width="34"/></g><path fill="#fff" stroke="#7E0707" stroke-width="34" d="M1456.81 1173.73C1493.98 1173.73 1524 1143.5 1524 1106.35C1524 1069.2 1493.98 1038.97 1456.81 1038.97C1419.64 1038.97 1389.62 1069.2 1389.62 1106.35C1389.62 1143.5 1419.64 1173.73 1456.81 1173.73Z"/><path fill="#fff" stroke="#7E0707" stroke-width="34" d="M295.336 821.083C332.505 821.083 362.53 790.858 362.53 753.705C362.53 716.552 332.505 686.327 295.336 686.327C258.168 686.327 228.143 716.552 228.143 753.705C228.143 790.858 258.168 821.083 295.336 821.083Z"/><g filter="url(#filter13_d_125_17)"><line x1="344.526" x2="476.047" y1="747.788" y2="747.788" stroke="#7E0707" stroke-width="34"/></g><path fill="#fff" stroke="#7E0707" stroke-width="34" d="M1452.79 639.722C1489.96 639.722 1519.99 609.497 1519.99 572.344C1519.99 535.191 1489.96 504.966 1452.79 504.966C1415.63 504.966 1385.6 535.191 1385.6 572.344C1385.6 609.497 1415.63 639.722 1452.79 639.722Z"/><g filter="url(#filter14_d_125_17)"><line x1="1271.1" x2="1402.62" y1="566.427" y2="566.427" stroke="#7E0707" stroke-width="34"/></g><path fill="#fff" stroke="#7E0707" stroke-width="34" d="M356.07 1009.5C384.645 1009.5 407.704 986.264 407.704 957.737C407.704 929.209 384.645 905.976 356.07 905.976C327.495 905.976 304.437 929.209 304.437 957.737C304.437 986.264 327.495 1009.5 356.07 1009.5Z"/><g filter="url(#filter15_d_125_17)"><line x2="86.338" y1="-17" y2="-17" stroke="#7E0707" stroke-width="34" transform="matrix(0.999932 -0.0116699 0.0115845 0.999933 389.7 968.316)"/></g><path fill="#fff" stroke="#7E0707" stroke-width="34" d="M153.791 1271.46C204.821 1271.46 246.081 1229.96 246.081 1178.9C246.081 1127.83 204.821 1086.33 153.791 1086.33C102.762 1086.33 61.5015 1127.83 61.5015 1178.9C61.5015 1229.96 102.762 1271.46 153.791 1271.46Z"/><path fill="#fff" stroke="#7E0707" stroke-width="34" d="M1611.4 1059.88C1662.43 1059.88 1703.69 1018.37 1703.69 967.308C1703.69 916.244 1662.43 874.741 1611.4 874.741C1560.37 874.741 1519.11 916.244 1519.11 967.308C1519.11 1018.37 1560.37 1059.88 1611.4 1059.88Z"/><path stroke="#7E0707" stroke-width="34" d="M1272.1 891.741H1428.7L1543.14 939.097M241.128 1143.63L340.51 1086.2H499.623"/><path fill="#fff" stroke="#7E0707" stroke-width="34" d="M110 672.219C161.029 672.219 202.29 630.717 202.29 579.652C202.29 528.588 161.029 487.085 110 487.085C58.9708 487.085 17.7101 528.588 17.7101 579.652C17.7101 630.717 58.9708 672.219 110 672.219Z"/><path stroke="#7E0707" stroke-width="34" d="M192.942 584.434L342.016 641.866H476.032"/><g style="mix-blend-mode:difference" filter="url(#filter16_b_125_17)"><mask id="path-37-outside-1_125_17" width="170" height="167" x="829.436" y="917.021" fill="#000" maskUnits="userSpaceOnUse"><rect width="170" height="167" x="829.436" y="917.021" fill="#fff"/><path fill-rule="evenodd" d="M872.293 1030.78L856.669 1045.93L868.147 1057.06L883.94 1041.74C890.399 1046.17 897.941 1049.21 906.104 1050.42V1072.09H922.337V1050.36C930.627 1049.08 938.267 1045.9 944.769 1041.3L961.015 1057.06L972.493 1045.93L956.247 1030.18C960.989 1023.87 964.265 1016.47 965.589 1008.43H988.004V992.689H965.646C964.401 984.774 961.265 977.462 956.7 971.2L972.493 955.888L961.015 944.759L945.392 959.907C938.757 955.068 930.893 951.727 922.337 950.402V929.021H906.104V950.348C897.674 951.594 889.906 954.796 883.31 959.46L868.147 944.759L856.669 955.888L871.831 970.589C867.02 976.984 863.718 984.515 862.433 992.689H840.436V1008.43H862.489C863.856 1016.72 867.302 1024.35 872.293 1030.78Z" clip-rule="evenodd"/></mask><path fill="#4E5758" fill-rule="evenodd" d="M872.293 1030.78L856.669 1045.93L868.147 1057.06L883.94 1041.74C890.399 1046.17 897.941 1049.21 906.104 1050.42V1072.09H922.337V1050.36C930.627 1049.08 938.267 1045.9 944.769 1041.3L961.015 1057.06L972.493 1045.93L956.247 1030.18C960.989 1023.87 964.265 1016.47 965.589 1008.43H988.004V992.689H965.646C964.401 984.774 961.265 977.462 956.7 971.2L972.493 955.888L961.015 944.759L945.392 959.907C938.757 955.068 930.893 951.727 922.337 950.402V929.021H906.104V950.348C897.674 951.594 889.906 954.796 883.31 959.46L868.147 944.759L856.669 955.888L871.831 970.589C867.02 976.984 863.718 984.515 862.433 992.689H840.436V1008.43H862.489C863.856 1016.72 867.302 1024.35 872.293 1030.78Z" clip-rule="evenodd"/><path fill="#E2E7E7" d="M872.293 1030.78L879.95 1038.68C883.975 1034.77 884.421 1028.47 880.984 1024.04L872.293 1030.78ZM856.669 1045.93L849.012 1038.03C846.875 1040.1 845.669 1042.95 845.669 1045.93C845.669 1048.9 846.875 1051.75 849.012 1053.83L856.669 1045.93ZM868.147 1057.06L860.49 1064.95C864.756 1069.09 871.537 1069.09 875.804 1064.95L868.147 1057.06ZM883.94 1041.74L890.159 1032.67C885.842 1029.71 880.04 1030.2 876.283 1033.85L883.94 1041.74ZM906.104 1050.42H917.104C917.104 1044.96 913.108 1040.33 907.713 1039.54L906.104 1050.42ZM906.104 1072.09H895.104C895.104 1078.17 900.029 1083.09 906.104 1083.09V1072.09ZM922.337 1072.09V1083.09C928.412 1083.09 933.337 1078.17 933.337 1072.09H922.337ZM922.337 1050.36L920.653 1039.49C915.292 1040.32 911.337 1044.94 911.337 1050.36H922.337ZM944.769 1041.3L952.426 1033.41C948.626 1029.72 942.74 1029.27 938.418 1032.32L944.769 1041.3ZM961.015 1057.06L953.358 1064.95C957.625 1069.09 964.406 1069.09 968.672 1064.95L961.015 1057.06ZM972.493 1045.93L980.15 1053.83C982.287 1051.75 983.493 1048.9 983.493 1045.93C983.493 1042.95 982.287 1040.1 980.15 1038.03L972.493 1045.93ZM956.247 1030.18L947.456 1023.56C944.123 1028 944.609 1034.21 948.59 1038.07L956.247 1030.18ZM965.589 1008.43V997.427C960.204 997.427 955.611 1001.33 954.736 1006.64L965.589 1008.43ZM988.004 1008.43V1019.43C994.079 1019.43 999.004 1014.5 999.004 1008.43H988.004ZM988.004 992.689H999.004C999.004 986.614 994.079 981.689 988.004 981.689V992.689ZM965.646 992.689L954.779 994.398C955.621 999.748 960.231 1003.69 965.646 1003.69V992.689ZM956.7 971.2L949.043 963.303C945.107 967.119 944.582 973.25 947.811 977.68L956.7 971.2ZM972.493 955.888L980.15 963.785C982.287 961.714 983.493 958.864 983.493 955.888C983.493 952.911 982.287 950.062 980.15 947.99L972.493 955.888ZM961.015 944.759L968.672 936.862C964.406 932.725 957.625 932.725 953.358 936.862L961.015 944.759ZM945.392 959.907L938.91 968.795C943.236 971.949 949.205 971.531 953.049 967.805L945.392 959.907ZM922.337 950.402H911.337C911.337 955.828 915.292 960.443 920.653 961.273L922.337 950.402ZM922.337 929.021H933.337C933.337 922.946 928.412 918.021 922.337 918.021V929.021ZM906.104 929.021V918.021C900.029 918.021 895.104 922.946 895.104 929.021H906.104ZM906.104 950.348L907.713 961.229C913.108 960.432 917.104 955.801 917.104 950.348H906.104ZM883.31 959.46L875.653 967.358C879.453 971.042 885.338 971.498 889.66 968.442L883.31 959.46ZM868.147 944.759L875.804 936.862C871.537 932.725 864.756 932.725 860.49 936.862L868.147 944.759ZM856.669 955.888L849.012 947.99C846.875 950.062 845.669 952.911 845.669 955.888C845.669 958.864 846.875 961.714 849.012 963.785L856.669 955.888ZM871.831 970.589L880.622 977.201C883.955 972.77 883.469 966.551 879.488 962.691L871.831 970.589ZM862.433 992.689V1003.69C867.848 1003.69 872.458 999.748 873.299 994.398L862.433 992.689ZM840.436 992.689V981.689C834.361 981.689 829.436 986.614 829.436 992.689H840.436ZM840.436 1008.43H829.436C829.436 1014.5 834.361 1019.43 840.436 1019.43V1008.43ZM862.489 1008.43L873.343 1006.64C872.468 1001.33 867.874 997.427 862.489 997.427V1008.43ZM864.636 1022.88L849.012 1038.03L864.326 1053.83L879.95 1038.68L864.636 1022.88ZM849.012 1053.83L860.49 1064.95L875.804 1049.16L864.326 1038.03L849.012 1053.83ZM875.804 1064.95L891.597 1049.64L876.283 1033.85L860.49 1049.16L875.804 1064.95ZM907.713 1039.54C901.23 1038.58 895.261 1036.17 890.159 1032.67L877.722 1050.82C885.538 1056.17 894.651 1059.84 904.495 1061.3L907.713 1039.54ZM895.104 1050.42V1072.09H917.104V1050.42H895.104ZM906.104 1083.09H922.337V1061.09H906.104V1083.09ZM933.337 1072.09V1050.36H911.337V1072.09H933.337ZM938.418 1032.32C933.282 1035.95 927.236 1038.47 920.653 1039.49L924.02 1061.23C934.019 1059.68 943.251 1055.85 951.12 1050.29L938.418 1032.32ZM937.112 1049.2L953.358 1064.95L968.672 1049.16L952.426 1033.41L937.112 1049.2ZM968.672 1064.95L980.15 1053.83L964.836 1038.03L953.358 1049.16L968.672 1064.95ZM980.15 1038.03L963.904 1022.28L948.59 1038.07L964.836 1053.83L980.15 1038.03ZM954.736 1006.64C953.711 1012.86 951.172 1018.62 947.456 1023.56L965.038 1036.79C970.807 1029.12 974.82 1020.07 976.443 1010.21L954.736 1006.64ZM965.589 1019.43H988.004V997.427H965.589V1019.43ZM999.004 1008.43V992.689H977.004V1008.43H999.004ZM988.004 981.689H965.646V1003.69H988.004V981.689ZM947.811 977.68C951.386 982.583 953.816 988.27 954.779 994.398L976.512 990.98C974.986 981.278 971.145 972.341 965.589 964.72L947.811 977.68ZM964.357 979.098L980.15 963.785L964.836 947.99L949.043 963.303L964.357 979.098ZM980.15 947.99L968.672 936.862L953.358 952.657L964.836 963.785L980.15 947.99ZM953.358 936.862L937.735 952.01L953.049 967.805L968.672 952.657L953.358 936.862ZM920.653 961.273C927.447 962.325 933.67 964.973 938.91 968.795L951.873 951.02C943.843 945.163 934.34 941.13 924.02 939.532L920.653 961.273ZM933.337 950.402V929.021H911.337V950.402H933.337ZM922.337 918.021H906.104V940.021H922.337V918.021ZM895.104 929.021V950.348H917.104V929.021H895.104ZM889.66 968.442C894.871 964.757 901.018 962.219 907.713 961.229L904.495 939.466C894.329 940.969 884.942 944.834 876.959 950.479L889.66 968.442ZM890.967 951.563L875.804 936.862L860.49 952.657L875.653 967.358L890.967 951.563ZM860.49 936.862L849.012 947.99L864.326 963.785L875.804 952.657L860.49 936.862ZM849.012 963.785L864.174 978.486L879.488 962.691L864.326 947.99L849.012 963.785ZM873.299 994.398C874.294 988.07 876.853 982.212 880.622 977.201L863.041 963.976C857.188 971.757 853.142 980.96 851.566 990.98L873.299 994.398ZM862.433 981.689H840.436V1003.69H862.433V981.689ZM829.436 992.689V1008.43H851.436V992.689H829.436ZM840.436 1019.43H862.489V997.427H840.436V1019.43ZM880.984 1024.04C877.071 1018.99 874.401 1013.06 873.343 1006.64L851.636 1010.21C853.311 1020.39 857.532 1029.7 863.601 1037.52L880.984 1024.04Z" mask="url(#path-37-outside-1_125_17)"/><path fill="#4E5758" stroke="#E2E7E7" stroke-width="11" d="M944.578 1000.41C944.578 1016.5 931.082 1029.82 914.072 1029.82C897.063 1029.82 883.566 1016.5 883.566 1000.41C883.566 984.331 897.063 971.005 914.072 971.005C931.082 971.005 944.578 984.331 944.578 1000.41Z"/></g><g filter="url(#filter17_i_125_17)"><path stroke="#1C88C5" stroke-width="44" d="M686.845 930.905V706.288C686.845 706.288 833.606 739.062 840.637 829.448C847.669 919.834 686.845 930.905 686.845 930.905Z"/></g><path stroke="#7E0707" stroke-width="44" d="M764 977.314V669C764 669 968.223 713.985 978.008 838.051C987.792 962.117 764 977.314 764 977.314Z"/><mask id="path-42-outside-2_125_17" width="223" height="224" x="872.602" y="839.431" fill="#000" maskUnits="userSpaceOnUse"><rect width="223" height="224" x="872.602" y="839.431" fill="#fff"/><path fill-rule="evenodd" d="M926.944 993.753L905.687 1015.09L921.304 1030.76L942.791 1009.2C951.579 1015.43 961.84 1019.71 972.946 1021.41V1051.94H995.031V1021.33C1006.31 1019.53 1016.71 1015.05 1025.55 1008.58L1047.66 1030.76L1063.27 1015.09L1041.17 992.903C1047.62 984.024 1052.08 973.592 1053.88 962.271H1084.38V940.104H1053.96C1052.26 928.957 1048 918.658 1041.78 909.838L1063.27 888.272L1047.66 872.598L1026.4 893.933C1017.37 887.117 1006.67 882.412 995.031 880.546V850.431H972.946V880.469C961.476 882.224 950.909 886.734 941.934 893.303L921.304 872.598L905.687 888.272L926.317 908.977C919.771 917.985 915.279 928.592 913.53 940.104H883.602V962.271H913.607C915.466 973.956 920.154 984.693 926.944 993.753Z" clip-rule="evenodd"/></mask><path fill="#3E4D55" fill-rule="evenodd" d="M926.944 993.753L905.687 1015.09L921.304 1030.76L942.791 1009.2C951.579 1015.43 961.84 1019.71 972.946 1021.41V1051.94H995.031V1021.33C1006.31 1019.53 1016.71 1015.05 1025.55 1008.58L1047.66 1030.76L1063.27 1015.09L1041.17 992.903C1047.62 984.024 1052.08 973.592 1053.88 962.271H1084.38V940.104H1053.96C1052.26 928.957 1048 918.658 1041.78 909.838L1063.27 888.272L1047.66 872.598L1026.4 893.933C1017.37 887.117 1006.67 882.412 995.031 880.546V850.431H972.946V880.469C961.476 882.224 950.909 886.734 941.934 893.303L921.304 872.598L905.687 888.272L926.317 908.977C919.771 917.985 915.279 928.592 913.53 940.104H883.602V962.271H913.607C915.466 973.956 920.154 984.693 926.944 993.753Z" clip-rule="evenodd"/><path fill="#EAE7E7" d="M926.944 993.753L934.737 1001.52C938.594 997.646 939.024 991.53 935.747 987.157L926.944 993.753ZM905.687 1015.09L897.895 1007.32C893.618 1011.62 893.618 1018.56 897.895 1022.85L905.687 1015.09ZM921.304 1030.76L913.511 1038.53C915.575 1040.6 918.379 1041.76 921.304 1041.76C924.228 1041.76 927.032 1040.6 929.096 1038.53L921.304 1030.76ZM942.791 1009.2L949.156 1000.22C944.775 997.116 938.79 997.627 934.999 1001.43L942.791 1009.2ZM972.946 1021.41H983.946C983.946 1015.98 979.981 1011.36 974.611 1010.54L972.946 1021.41ZM972.946 1051.94H961.946C961.946 1058.02 966.871 1062.94 972.946 1062.94V1051.94ZM995.031 1051.94V1062.94C1001.11 1062.94 1006.03 1058.02 1006.03 1051.94H995.031ZM995.031 1021.33L993.29 1010.47C987.955 1011.33 984.031 1015.93 984.031 1021.33H995.031ZM1025.55 1008.58L1033.34 1000.81C1029.51 996.965 1023.44 996.492 1019.05 999.701L1025.55 1008.58ZM1047.66 1030.76L1039.86 1038.53C1041.93 1040.6 1044.73 1041.76 1047.66 1041.76C1050.58 1041.76 1053.38 1040.6 1055.45 1038.53L1047.66 1030.76ZM1063.27 1015.09L1071.06 1022.85C1075.34 1018.56 1075.34 1011.62 1071.06 1007.32L1063.27 1015.09ZM1041.17 992.903L1032.27 986.437C1029.09 990.809 1029.56 996.84 1033.38 1000.67L1041.17 992.903ZM1053.88 962.271V951.271C1048.47 951.271 1043.87 955.202 1043.02 960.542L1053.88 962.271ZM1084.38 962.271V973.271C1090.45 973.271 1095.38 968.346 1095.38 962.271H1084.38ZM1084.38 940.104H1095.38C1095.38 934.029 1090.45 929.104 1084.38 929.104V940.104ZM1053.96 940.104L1043.08 941.757C1043.9 947.132 1048.52 951.104 1053.96 951.104V940.104ZM1041.78 909.838L1033.99 902.074C1030.22 905.859 1029.71 911.804 1032.79 916.172L1041.78 909.838ZM1063.27 888.272L1071.06 896.035C1075.34 891.743 1075.34 884.8 1071.06 880.508L1063.27 888.272ZM1047.66 872.598L1055.45 864.834C1053.38 862.762 1050.58 861.598 1047.66 861.598C1044.73 861.598 1041.93 862.762 1039.86 864.834L1047.66 872.598ZM1026.4 893.933L1019.77 902.712C1024.16 906.023 1030.31 905.589 1034.19 901.697L1026.4 893.933ZM995.031 880.546H984.031C984.031 885.949 987.955 890.552 993.29 891.407L995.031 880.546ZM995.031 850.431H1006.03C1006.03 844.356 1001.11 839.431 995.031 839.431V850.431ZM972.946 850.431V839.431C966.871 839.431 961.946 844.356 961.946 850.431H972.946ZM972.946 880.469L974.611 891.342C979.981 890.52 983.946 885.901 983.946 880.469H972.946ZM941.934 893.303L934.141 901.067C937.976 904.916 944.047 905.389 948.431 902.179L941.934 893.303ZM921.304 872.598L929.096 864.834C927.032 862.762 924.228 861.598 921.304 861.598C918.379 861.598 915.575 862.762 913.511 864.834L921.304 872.598ZM905.687 888.272L897.895 880.508C893.618 884.8 893.618 891.743 897.895 896.035L905.687 888.272ZM926.317 908.977L935.216 915.443C938.392 911.072 937.923 905.041 934.11 901.213L926.317 908.977ZM913.53 940.104V951.104C918.967 951.104 923.588 947.132 924.405 941.757L913.53 940.104ZM883.602 940.104V929.104C877.527 929.104 872.602 934.029 872.602 940.104H883.602ZM883.602 962.271H872.602C872.602 968.346 877.527 973.271 883.602 973.271V962.271ZM913.607 962.271L924.47 960.542C923.62 955.202 919.014 951.271 913.607 951.271V962.271ZM919.152 985.99L897.895 1007.32L913.48 1022.85L934.737 1001.52L919.152 985.99ZM897.895 1022.85L913.511 1038.53L929.096 1023L913.48 1007.32L897.895 1022.85ZM929.096 1038.53L950.584 1016.96L934.999 1001.43L913.511 1023L929.096 1038.53ZM974.611 1010.54C965.244 1009.1 956.585 1005.49 949.156 1000.22L936.427 1018.17C946.573 1025.37 958.436 1030.32 971.282 1032.29L974.611 1010.54ZM961.946 1021.41V1051.94H983.946V1021.41H961.946ZM972.946 1062.94H995.031V1040.94H972.946V1062.94ZM1006.03 1051.94V1021.33H984.031V1051.94H1006.03ZM1019.05 999.701C1011.57 1005.18 1002.8 1008.95 993.29 1010.47L996.772 1032.2C1009.82 1030.1 1021.84 1024.93 1032.05 1017.45L1019.05 999.701ZM1017.76 1016.34L1039.86 1038.53L1055.45 1023L1033.34 1000.81L1017.76 1016.34ZM1055.45 1038.53L1071.06 1022.85L1055.48 1007.32L1039.86 1023L1055.45 1038.53ZM1071.06 1007.32L1048.96 985.14L1033.38 1000.67L1055.48 1022.85L1071.06 1007.32ZM1043.02 960.542C1041.49 970.109 1037.73 978.925 1032.27 986.437L1050.07 999.37C1057.51 989.124 1062.66 977.076 1064.74 963.999L1043.02 960.542ZM1053.88 973.271H1084.38V951.271H1053.88V973.271ZM1095.38 962.271V940.104H1073.38V962.271H1095.38ZM1084.38 929.104H1053.96V951.104H1084.38V929.104ZM1032.79 916.172C1038.05 923.633 1041.65 932.336 1043.08 941.757L1064.83 938.452C1062.87 925.578 1057.95 913.683 1050.78 903.505L1032.79 916.172ZM1049.58 917.602L1071.06 896.035L1055.48 880.508L1033.99 902.074L1049.58 917.602ZM1071.06 880.508L1055.45 864.834L1039.86 880.361L1055.48 896.035L1071.06 880.508ZM1039.86 864.834L1018.61 886.169L1034.19 901.697L1055.45 880.361L1039.86 864.834ZM993.29 891.407C1003.11 892.981 1012.14 896.948 1019.77 902.712L1033.03 885.154C1022.61 877.286 1010.24 871.843 996.772 869.685L993.29 891.407ZM1006.03 880.546V850.431H984.031V880.546H1006.03ZM995.031 839.431H972.946V861.431H995.031V839.431ZM961.946 850.431V880.469H983.946V850.431H961.946ZM948.431 902.179C956.019 896.625 964.938 892.823 974.611 891.342L971.282 869.595C958.015 871.626 945.798 876.842 935.436 884.427L948.431 902.179ZM949.726 885.539L929.096 864.834L913.511 880.361L934.141 901.067L949.726 885.539ZM913.511 864.834L897.895 880.508L913.48 896.035L929.096 880.361L913.511 864.834ZM897.895 896.035L918.525 916.741L934.11 901.213L913.48 880.508L897.895 896.035ZM924.405 941.757C925.883 932.028 929.678 923.065 935.216 915.443L917.418 902.511C909.865 912.906 904.675 925.156 902.655 938.452L924.405 941.757ZM913.53 929.104H883.602V951.104H913.53V929.104ZM872.602 940.104V962.271H894.602V940.104H872.602ZM883.602 973.271H913.607V951.271H883.602V973.271ZM935.747 987.157C930.001 979.49 926.041 970.416 924.47 960.542L902.743 963.999C904.891 977.496 910.307 989.896 918.142 1000.35L935.747 987.157Z" mask="url(#path-42-outside-2_125_17)"/><path fill="#3E4D55" stroke="#EAE7E7" stroke-width="11" d="M1027.28 950.985C1027.28 975.122 1007.79 994.654 983.787 994.654C959.789 994.654 940.299 975.122 940.299 950.985C940.299 926.849 959.789 907.317 983.787 907.317C1007.79 907.317 1027.28 926.849 1027.28 950.985Z"/><defs><filter id="filter0_d_125_17" width="755.586" height="758.059" x="497.276" y="487.996" color-interpolation-filters="sRGB" filterUnits="userSpaceOnUse"><feFlood flood-opacity="0" result="BackgroundImageFix"/><feColorMatrix in="SourceAlpha" result="hardAlpha" type="matrix" values="0 0 0 0 0 0 0 0 0 0 0 0 0 0 0 0 0 0 127 0"/><feOffset dy="4"/><feGaussianBlur stdDeviation="2"/><feComposite in2="hardAlpha" operator="out"/><feColorMatrix type="matrix" values="0 0 0 0 0 0 0 0 0 0 0 0 0 0 0 0 0 0 0.25 0"/><feBlend in2="BackgroundImageFix" mode="normal" result="effect1_dropShadow_125_17"/><feBlend in="SourceGraphic" in2="effect1_dropShadow_125_17" mode="normal" result="shape"/></filter><filter id="filter1_d_125_17" width="524.813" height="526.547" x="612.663" y="603.752" color-interpolation-filters="sRGB" filterUnits="userSpaceOnUse"><feFlood flood-opacity="0" result="BackgroundImageFix"/><feColorMatrix in="SourceAlpha" result="hardAlpha" type="matrix" values="0 0 0 0 0 0 0 0 0 0 0 0 0 0 0 0 0 0 127 0"/><feOffset dy="4"/><feGaussianBlur stdDeviation="2"/><feComposite in2="hardAlpha" operator="out"/><feColorMatrix type="matrix" values="0 0 0 0 0 0 0 0 0 0 0 0 0 0 0 0 0 0 0.25 0"/><feBlend in2="BackgroundImageFix" mode="normal" result="effect1_dropShadow_125_17"/><feBlend in="SourceGraphic" in2="effect1_dropShadow_125_17" mode="normal" result="shape"/></filter><filter id="filter2_d_125_17" width="42" height="140.006" x="1109.62" y="1259.5" color-interpolation-filters="sRGB" filterUnits="userSpaceOnUse"><feFlood flood-opacity="0" result="BackgroundImageFix"/><feColorMatrix in="SourceAlpha" result="hardAlpha" type="matrix" values="0 0 0 0 0 0 0 0 0 0 0 0 0 0 0 0 0 0 127 0"/><feOffset dy="4"/><feGaussianBlur stdDeviation="2"/><feComposite in2="hardAlpha" operator="out"/><feColorMatrix type="matrix" values="0 0 0 0 0 0 0 0 0 0 0 0 0 0 0 0 0 0 0.25 0"/><feBlend in2="BackgroundImageFix" mode="normal" result="effect1_dropShadow_125_17"/><feBlend in="SourceGraphic" in2="effect1_dropShadow_125_17" mode="normal" result="shape"/></filter><filter id="filter3_d_125_17" width="42" height="178.278" x="945.989" y="1259.5" color-interpolation-filters="sRGB" filterUnits="userSpaceOnUse"><feFlood flood-opacity="0" result="BackgroundImageFix"/><feColorMatrix in="SourceAlpha" result="hardAlpha" type="matrix" values="0 0 0 0 0 0 0 0 0 0 0 0 0 0 0 0 0 0 127 0"/><feOffset dy="4"/><feGaussianBlur stdDeviation="2"/><feComposite in2="hardAlpha" operator="out"/><feColorMatrix type="matrix" values="0 0 0 0 0 0 0 0 0 0 0 0 0 0 0 0 0 0 0.25 0"/><feBlend in2="BackgroundImageFix" mode="normal" result="effect1_dropShadow_125_17"/><feBlend in="SourceGraphic" in2="effect1_dropShadow_125_17" mode="normal" result="shape"/></filter><filter id="filter4_d_125_17" width="80.019" height="125.575" x="908.108" y="1417.56" color-interpolation-filters="sRGB" filterUnits="userSpaceOnUse"><feFlood flood-opacity="0" result="BackgroundImageFix"/><feColorMatrix in="SourceAlpha" result="hardAlpha" type="matrix" values="0 0 0 0 0 0 0 0 0 0 0 0 0 0 0 0 0 0 127 0"/><feOffset dy="4"/><feGaussianBlur stdDeviation="2"/><feComposite in2="hardAlpha" operator="out"/><feColorMatrix type="matrix" values="0 0 0 0 0 0 0 0 0 0 0 0 0 0 0 0 0 0 0.25 0"/><feBlend in2="BackgroundImageFix" mode="normal" result="effect1_dropShadow_125_17"/><feBlend in="SourceGraphic" in2="effect1_dropShadow_125_17" mode="normal" result="shape"/></filter><filter id="filter5_d_125_17" width="42" height="94.656" x="614.694" y="1259.5" color-interpolation-filters="sRGB" filterUnits="userSpaceOnUse"><feFlood flood-opacity="0" result="BackgroundImageFix"/><feColorMatrix in="SourceAlpha" result="hardAlpha" type="matrix" values="0 0 0 0 0 0 0 0 0 0 0 0 0 0 0 0 0 0 127 0"/><feOffset dy="4"/><feGaussianBlur stdDeviation="2"/><feComposite in2="hardAlpha" operator="out"/><feColorMatrix type="matrix" values="0 0 0 0 0 0 0 0 0 0 0 0 0 0 0 0 0 0 0.25 0"/><feBlend in2="BackgroundImageFix" mode="normal" result="effect1_dropShadow_125_17"/><feBlend in="SourceGraphic" in2="effect1_dropShadow_125_17" mode="normal" result="shape"/></filter><filter id="filter6_d_125_17" width="42" height="94.656" x="804.409" y="1258.5" color-interpolation-filters="sRGB" filterUnits="userSpaceOnUse"><feFlood flood-opacity="0" result="BackgroundImageFix"/><feColorMatrix in="SourceAlpha" result="hardAlpha" type="matrix" values="0 0 0 0 0 0 0 0 0 0 0 0 0 0 0 0 0 0 127 0"/><feOffset dy="4"/><feGaussianBlur stdDeviation="2"/><feComposite in2="hardAlpha" operator="out"/><feColorMatrix type="matrix" values="0 0 0 0 0 0 0 0 0 0 0 0 0 0 0 0 0 0 0.25 0"/><feBlend in2="BackgroundImageFix" mode="normal" result="effect1_dropShadow_125_17"/><feBlend in="SourceGraphic" in2="effect1_dropShadow_125_17" mode="normal" result="shape"/></filter><filter id="filter7_d_125_17" width="42" height="140.006" x="569.539" y="334.559" color-interpolation-filters="sRGB" filterUnits="userSpaceOnUse"><feFlood flood-opacity="0" result="BackgroundImageFix"/><feColorMatrix in="SourceAlpha" result="hardAlpha" type="matrix" values="0 0 0 0 0 0 0 0 0 0 0 0 0 0 0 0 0 0 127 0"/><feOffset dy="4"/><feGaussianBlur stdDeviation="2"/><feComposite in2="hardAlpha" operator="out"/><feColorMatrix type="matrix" values="0 0 0 0 0 0 0 0 0 0 0 0 0 0 0 0 0 0 0.25 0"/><feBlend in2="BackgroundImageFix" mode="normal" result="effect1_dropShadow_125_17"/><feBlend in="SourceGraphic" in2="effect1_dropShadow_125_17" mode="normal" result="shape"/></filter><filter id="filter8_d_125_17" width="42" height="178.278" x="763.285" y="296.272" color-interpolation-filters="sRGB" filterUnits="userSpaceOnUse"><feFlood flood-opacity="0" result="BackgroundImageFix"/><feColorMatrix in="SourceAlpha" result="hardAlpha" type="matrix" values="0 0 0 0 0 0 0 0 0 0 0 0 0 0 0 0 0 0 127 0"/><feOffset dy="4"/><feGaussianBlur stdDeviation="2"/><feComposite in2="hardAlpha" operator="out"/><feColorMatrix type="matrix" values="0 0 0 0 0 0 0 0 0 0 0 0 0 0 0 0 0 0 0.25 0"/><feBlend in2="BackgroundImageFix" mode="normal" result="effect1_dropShadow_125_17"/><feBlend in="SourceGraphic" in2="effect1_dropShadow_125_17" mode="normal" result="shape"/></filter><filter id="filter9_d_125_17" width="42" height="140.006" x="1124.68" y="334.559" color-interpolation-filters="sRGB" filterUnits="userSpaceOnUse"><feFlood flood-opacity="0" result="BackgroundImageFix"/><feColorMatrix in="SourceAlpha" result="hardAlpha" type="matrix" values="0 0 0 0 0 0 0 0 0 0 0 0 0 0 0 0 0 0 127 0"/><feOffset dy="4"/><feGaussianBlur stdDeviation="2"/><feComposite in2="hardAlpha" operator="out"/><feColorMatrix type="matrix" values="0 0 0 0 0 0 0 0 0 0 0 0 0 0 0 0 0 0 0.25 0"/><feBlend in2="BackgroundImageFix" mode="normal" result="effect1_dropShadow_125_17"/><feBlend in="SourceGraphic" in2="effect1_dropShadow_125_17" mode="normal" result="shape"/></filter><filter id="filter10_d_125_17" width="42" height="94.656" x="905.799" y="380.899" color-interpolation-filters="sRGB" filterUnits="userSpaceOnUse"><feFlood flood-opacity="0" result="BackgroundImageFix"/><feColorMatrix in="SourceAlpha" result="hardAlpha" type="matrix" values="0 0 0 0 0 0 0 0 0 0 0 0 0 0 0 0 0 0 127 0"/><feOffset dy="4"/><feGaussianBlur stdDeviation="2"/><feComposite in2="hardAlpha" operator="out"/><feColorMatrix type="matrix" values="0 0 0 0 0 0 0 0 0 0 0 0 0 0 0 0 0 0 0.25 0"/><feBlend in2="BackgroundImageFix" mode="normal" result="effect1_dropShadow_125_17"/><feBlend in="SourceGraphic" in2="effect1_dropShadow_125_17" mode="normal" result="shape"/></filter><filter id="filter11_d_125_17" width="94.725" height="43.009" x="1264.71" y="708.62" color-interpolation-filters="sRGB" filterUnits="userSpaceOnUse"><feFlood flood-opacity="0" result="BackgroundImageFix"/><feColorMatrix in="SourceAlpha" result="hardAlpha" type="matrix" values="0 0 0 0 0 0 0 0 0 0 0 0 0 0 0 0 0 0 127 0"/><feOffset dy="4"/><feGaussianBlur stdDeviation="2"/><feComposite in2="hardAlpha" operator="out"/><feColorMatrix type="matrix" values="0 0 0 0 0 0 0 0 0 0 0 0 0 0 0 0 0 0 0.25 0"/><feBlend in2="BackgroundImageFix" mode="normal" result="effect1_dropShadow_125_17"/><feBlend in="SourceGraphic" in2="effect1_dropShadow_125_17" mode="normal" result="shape"/></filter><filter id="filter12_d_125_17" width="139.522" height="42" x="1272.11" y="1080.41" color-interpolation-filters="sRGB" filterUnits="userSpaceOnUse"><feFlood flood-opacity="0" result="BackgroundImageFix"/><feColorMatrix in="SourceAlpha" result="hardAlpha" type="matrix" values="0 0 0 0 0 0 0 0 0 0 0 0 0 0 0 0 0 0 127 0"/><feOffset dy="4"/><feGaussianBlur stdDeviation="2"/><feComposite in2="hardAlpha" operator="out"/><feColorMatrix type="matrix" values="0 0 0 0 0 0 0 0 0 0 0 0 0 0 0 0 0 0 0.25 0"/><feBlend in2="BackgroundImageFix" mode="normal" result="effect1_dropShadow_125_17"/><feBlend in="SourceGraphic" in2="effect1_dropShadow_125_17" mode="normal" result="shape"/></filter><filter id="filter13_d_125_17" width="139.522" height="42" x="340.526" y="730.788" color-interpolation-filters="sRGB" filterUnits="userSpaceOnUse"><feFlood flood-opacity="0" result="BackgroundImageFix"/><feColorMatrix in="SourceAlpha" result="hardAlpha" type="matrix" values="0 0 0 0 0 0 0 0 0 0 0 0 0 0 0 0 0 0 127 0"/><feOffset dy="4"/><feGaussianBlur stdDeviation="2"/><feComposite in2="hardAlpha" operator="out"/><feColorMatrix type="matrix" values="0 0 0 0 0 0 0 0 0 0 0 0 0 0 0 0 0 0 0.25 0"/><feBlend in2="BackgroundImageFix" mode="normal" result="effect1_dropShadow_125_17"/><feBlend in="SourceGraphic" in2="effect1_dropShadow_125_17" mode="normal" result="shape"/></filter><filter id="filter14_d_125_17" width="139.522" height="42" x="1267.1" y="549.427" color-interpolation-filters="sRGB" filterUnits="userSpaceOnUse"><feFlood flood-opacity="0" result="BackgroundImageFix"/><feColorMatrix in="SourceAlpha" result="hardAlpha" type="matrix" values="0 0 0 0 0 0 0 0 0 0 0 0 0 0 0 0 0 0 127 0"/><feOffset dy="4"/><feGaussianBlur stdDeviation="2"/><feComposite in2="hardAlpha" operator="out"/><feColorMatrix type="matrix" values="0 0 0 0 0 0 0 0 0 0 0 0 0 0 0 0 0 0 0.25 0"/><feBlend in2="BackgroundImageFix" mode="normal" result="effect1_dropShadow_125_17"/><feBlend in="SourceGraphic" in2="effect1_dropShadow_125_17" mode="normal" result="shape"/></filter><filter id="filter15_d_125_17" width="94.726" height="43.005" x="385.306" y="933.311" color-interpolation-filters="sRGB" filterUnits="userSpaceOnUse"><feFlood flood-opacity="0" result="BackgroundImageFix"/><feColorMatrix in="SourceAlpha" result="hardAlpha" type="matrix" values="0 0 0 0 0 0 0 0 0 0 0 0 0 0 0 0 0 0 127 0"/><feOffset dy="4"/><feGaussianBlur stdDeviation="2"/><feComposite in2="hardAlpha" operator="out"/><feColorMatrix type="matrix" values="0 0 0 0 0 0 0 0 0 0 0 0 0 0 0 0 0 0 0.25 0"/><feBlend in2="BackgroundImageFix" mode="normal" result="effect1_dropShadow_125_17"/><feBlend in="SourceGraphic" in2="effect1_dropShadow_125_17" mode="normal" result="shape"/></filter><filter id="filter16_b_125_17" width="177.568" height="173.074" x="825.436" y="914.021" color-interpolation-filters="sRGB" filterUnits="userSpaceOnUse"><feFlood flood-opacity="0" result="BackgroundImageFix"/><feGaussianBlur in="BackgroundImageFix" stdDeviation="2"/><feComposite in2="SourceAlpha" operator="in" result="effect1_backgroundBlur_125_17"/><feBlend in="SourceGraphic" in2="effect1_backgroundBlur_125_17" mode="normal" result="shape"/></filter><filter id="filter17_i_125_17" width="198.018" height="279.638" x="664.845" y="678.834" color-interpolation-filters="sRGB" filterUnits="userSpaceOnUse"><feFlood flood-opacity="0" result="BackgroundImageFix"/><feBlend in="SourceGraphic" in2="BackgroundImageFix" mode="normal" result="shape"/><feColorMatrix in="SourceAlpha" result="hardAlpha" type="matrix" values="0 0 0 0 0 0 0 0 0 0 0 0 0 0 0 0 0 0 127 0"/><feOffset dy="4"/><feGaussianBlur stdDeviation="2"/><feComposite in2="hardAlpha" k2="-1" k3="1" operator="arithmetic"/><feColorMatrix type="matrix" values="0 0 0 0 0 0 0 0 0 0 0 0 0 0 0 0 0 0 0.25 0"/><feBlend in2="shape" mode="normal" result="effect1_innerShadow_125_17"/></filter></defs></svg>